<svg width="64" height="64" viewBox="0 0 64 64" fill="none" xmlns="http://www.w3.org/2000/svg">
<path d="M56 5C59.3137 5 62 7.68629 62 11V53C62 56.3137 59.3137 59 56 59H8C4.68629 59 2 56.3137 2 53V11C2 7.68629 4.68629 5 8 5H56ZM24 23C15.1634 23 8 30.1634 8 39C8 47.8366 15.1634 55 24 55C32.8366 55 40 47.8366 40 39C40 30.1634 32.8366 23 24 23ZM45 52H57V47H45V52ZM21.5 40.1182L22.333 40.8633L30.3135 48.0039C28.5261 49.2595 26.3503 50 24 50C17.9249 50 13 45.0751 13 39C13 33.7851 16.6297 29.4213 21.5 28.2891V40.1182ZM26.5 28.2891C31.3703 29.4213 35 33.7851 35 39C35 40.9135 34.5096 42.712 33.6504 44.2793L26.5 37.8818V28.2891ZM45 41H57V36H45V41ZM45 30H57V25H45V30ZM7 18H57V13H7V18Z" fill="white"/>
</svg>
